<?xml version="1.0" standalone="no"?>
<!DOCTYPE svg PUBLIC "-//W3C//DTD SVG 20010904//EN"
 "http://www.w3.org/TR/2001/REC-SVG-20010904/DTD/svg10.dtd">
<svg version="1.0" xmlns="http://www.w3.org/2000/svg"
 width="172.000000pt" height="172.000000pt" viewBox="0 0 172.000000 172.000000"
 preserveAspectRatio="xMidYMid meet">
<metadata>
Created by potrace 1.11, written by Peter Selinger 2001-2013
</metadata>
<g transform="translate(0.000000,172.000000) scale(0.100000,-0.100000)"
fill="#000000" stroke="none">
<path d="M1404 1660 c-32 -13 -64 -59 -64 -92 0 -33 24 -84 42 -90 7 -3 -4
-19 -25 -39 -48 -44 -60 -113 -29 -169 29 -52 93 -82 157 -74 52 6 106 38 126
75 13 26 16 82 6 132 -5 23 -5 37 1 33 16 -9 43 17 33 33 -10 16 -87 19 -101
5 -6 -6 -3 -28 9 -59 38 -100 2 -168 -88 -169 -41 -1 -55 4 -76 25 -55 54 -40
128 31 155 47 18 60 49 27 61 -56 19 -81 83 -47 117 24 25 68 24 96 -1 20 -18
48 -11 48 12 0 37 -93 66 -146 45z"/>
<path d="M130 1605 c-8 -10 -11 -48 -8 -119 4 -112 13 -137 69 -179 43 -31
140 -26 180 9 8 8 18 14 22 14 3 0 6 -98 6 -217 0 -302 -2 -280 21 -286 13 -3
39 11 81 44 125 101 198 122 399 116 163 -5 226 4 294 41 48 26 126 111 126
137 0 7 -6 18 -14 24 -11 9 -23 0 -60 -43 -26 -31 -67 -64 -94 -78 -44 -21
-60 -23 -233 -24 -142 -2 -201 -6 -245 -19 -53 -15 -146 -62 -199 -100 -20
-14 -20 -13 -22 298 -1 172 -2 329 -2 350 -1 33 -4 37 -26 37 -24 0 -25 -2
-26 -67 -1 -38 0 -72 1 -78 5 -26 -25 -83 -54 -103 -46 -32 -98 -29 -138 7
-32 29 -32 30 -36 134 -4 108 -15 134 -42 102z"/>
<path d="M929 1450 c-14 -8 -17 -26 -15 -109 1 -84 4 -104 22 -128 32 -43 81
-65 133 -58 93 11 124 57 126 188 1 66 -2 93 -13 103 -26 27 -38 0 -40 -92 -2
-119 -34 -163 -107 -150 -52 10 -68 45 -70 148 -1 92 -9 113 -36 98z"/>
<path d="M641 1415 c-43 -14 -97 -76 -105 -120 -20 -104 55 -199 159 -199 65
0 112 28 144 84 75 134 -53 285 -198 235z m117 -61 c30 -19 51 -69 46 -107
-17 -139 -214 -128 -216 12 -1 94 91 146 170 95z"/>
<path d="M1455 1103 c-87 -23 -123 -129 -76 -221 11 -20 70 -86 132 -147 132
-130 165 -186 156 -267 -19 -161 -188 -244 -338 -167 -120 61 -138 232 -35
328 28 26 35 61 12 61 -26 0 -75 -50 -102 -106 -82 -168 24 -344 215 -359 174
-14 313 116 299 279 -7 83 -38 133 -159 252 -117 115 -149 162 -149 217 0 38
40 87 71 87 38 0 70 -21 85 -55 15 -37 40 -46 51 -19 8 22 -21 80 -49 98 -27
17 -84 27 -113 19z"/>
<path d="M11 1017 c-16 -16 -14 -190 3 -230 23 -55 85 -95 141 -92 39 2 84 16
96 31 6 8 15 14 19 14 3 0 7 -101 7 -224 0 -123 3 -228 7 -234 10 -17 104 -33
197 -33 180 -1 322 63 390 175 18 30 16 56 -6 56 -7 0 -32 -23 -55 -50 -74
-89 -172 -130 -310 -131 -72 0 -147 8 -162 18 -5 2 -8 159 -8 347 0 267 -3
346 -13 354 -26 22 -38 -3 -38 -79 -1 -128 -30 -177 -112 -186 -39 -5 -48 -2
-78 25 l-34 30 -3 105 c-4 106 -14 131 -41 104z"/>
<path d="M1149 921 c-16 -16 -30 -38 -30 -48 -1 -10 -2 -67 -3 -126 -2 -114 8
-143 39 -117 12 10 15 37 15 124 0 114 6 137 41 149 10 3 34 -3 54 -14 33 -18
40 -19 52 -6 12 12 10 18 -17 41 -46 38 -111 37 -151 -3z"/>
<path d="M766 833 c-11 -57 0 -188 19 -216 50 -77 182 -78 234 -2 20 30 24 49
26 122 2 105 -1 123 -26 123 -23 0 -21 8 -28 -173 -1 -15 -12 -39 -26 -53 -20
-20 -33 -25 -67 -22 -62 5 -79 34 -83 139 -2 46 -3 90 -4 97 -1 6 -10 12 -20
12 -13 0 -21 -9 -25 -27z"/>
<path d="M510 739 c-89 -36 -127 -140 -83 -229 53 -106 196 -121 274 -27 29
36 38 86 26 147 -19 89 -128 144 -217 109z m110 -54 c54 -28 75 -98 45 -155
-34 -67 -111 -81 -167 -31 -30 26 -33 35 -33 84 0 41 5 61 20 77 37 41 86 50
135 25z"/>
<path d="M1326 535 c-36 -33 -37 -95 -1 -130 31 -32 93 -34 120 -5 24 27 5 52
-20 26 -37 -37 -101 0 -89 52 8 32 33 55 54 48 56 -18 60 -18 60 -3 0 41 -84
49 -124 12z"/>
<path d="M1477 512 c-10 -10 -17 -28 -17 -39 0 -23 30 -53 53 -53 21 0 57 35
57 55 0 21 -36 55 -58 55 -11 0 -26 -8 -35 -18z m56 -24 c6 -19 -3 -38 -18
-38 -18 0 -28 17 -21 35 7 18 33 20 39 3z"/>
<path d="M1006 455 c-21 -22 -20 -48 3 -69 26 -24 52 -17 71 17 14 26 14 29
-4 42 -17 13 -21 12 -32 -3 -7 -9 -10 -21 -6 -26 3 -6 7 -5 10 2 5 17 22 15
22 -3 0 -23 -29 -30 -48 -11 -14 14 -15 20 -4 37 17 27 9 35 -12 14z"/>
<path d="M1580 440 c0 -19 3 -21 12 -12 9 9 9 15 0 24 -9 9 -12 7 -12 -12z"/>
<path d="M960 361 c0 -5 10 -17 22 -25 22 -16 21 -16 -19 -16 -49 0 -50 -16
-2 -44 34 -20 53 -13 23 9 -12 9 -14 15 -6 16 6 1 17 3 22 4 6 1 17 3 26 4 12
1 14 4 6 14 -17 19 -72 49 -72 38z"/>
<path d="M870 275 c0 -13 34 -57 51 -66 27 -14 23 1 -10 39 -27 30 -41 39 -41
27z"/>
<path d="M790 216 c0 -14 44 -76 53 -76 18 1 51 29 43 37 -4 4 -16 2 -26 -5
-17 -10 -21 -8 -35 18 -13 25 -35 41 -35 26z"/>
<path d="M707 174 c-6 -6 29 -84 38 -84 12 0 55 24 55 32 0 11 -7 10 -31 -3
-17 -9 -22 -5 -34 25 -16 38 -18 40 -28 30z"/>
<path d="M241 133 c-14 -50 -14 -50 9 -56 55 -14 92 41 50 75 -33 27 -48 22
-59 -19z m48 8 c18 -12 4 -53 -17 -49 -8 2 -15 6 -14 11 1 4 2 16 2 27 0 22 7
25 29 11z"/>
<path d="M640 143 c0 -24 22 -83 29 -78 11 6 -8 85 -20 85 -5 0 -9 -3 -9 -7z"/>
<path d="M353 101 c-6 -21 -7 -44 -3 -51 4 -7 12 7 19 34 13 54 13 56 2 56 -5
0 -13 -18 -18 -39z"/>
<path d="M421 126 c-16 -19 -7 -34 27 -49 l27 -11 -33 -4 c-18 -2 -30 -8 -27
-13 10 -15 51 -10 66 7 11 14 10 18 -6 30 -10 8 -25 14 -33 14 -7 0 -10 5 -6
11 3 6 15 9 25 6 10 -3 22 -1 25 4 3 5 -1 9 -10 9 -8 0 -21 2 -29 5 -7 3 -19
-1 -26 -9z"/>
<path d="M525 130 c-3 -5 1 -10 9 -10 9 0 18 -13 22 -35 3 -19 11 -35 16 -35
6 0 8 14 4 35 -6 28 -4 35 9 35 8 0 15 5 15 10 0 6 -15 10 -34 10 -19 0 -38
-4 -41 -10z"/>
</g>
</svg>
